<?xml version="1.0" encoding="UTF-8"?>
<svg version="1.1" viewBox="0 0 493.5 149.5" xml:space="preserve" xmlns="http://www.w3.org/2000/svg">
<style type="text/css">
	.st0{fill:#0066B3;}
</style>
<g transform="translate(-3.5,-3.8)">
	<path class="st0" d="m413 26.7-19.1 34.4c-7.2-5.8-16-10.1-27.2-10.1-26.5 0-36.3 19.7-36.3 33.5 0 10.3 5.8 25.5 29.4 25.5 12 0 24.8-5.5 30.6-10l-18.9 38.8c-8.8 3.1-14.4 4-22 4.3-42.2 1.3-58.3-24.6-58.3-50.9 0-34.9 30.2-77.3 81.8-77.3 3.2 0 6.4 0.6 9.3 2.3l3.7-3.2zm-336.3 106.9h1.2c1 0 1.6-0.4 1.7-1.9 0-1.4-0.5-1.6-1.8-1.6h-1zm-2.5 6.8 0.3-12.1h4.6c2.2 0 2.8 1.8 2.8 3.5 0 1-0.3 2.2-1.2 2.9-0.7 0.6-1.7 0.7-2.5 0.7h-1.5l-0.1 5zm-5.3-12.5 2.4 0.3-1 8.4c-0.5 2.7-1.5 3.8-4.5 3.5-3-0.4-3.7-1.7-3.5-4.4l1-8.4 2.4 0.3-1 8.2c-0.1 0.9-0.3 2.2 1.3 2.4 1.4 0.1 1.7-0.8 1.9-2zm-15.3 3 1.6 0.4c1 0.1 1.5-0.4 1.7-1.6 0.2-1.1-0.1-1.5-0.9-1.8l-1.8-0.4zm-0.4 1.8-1.1 5.1-2.4-0.5 2.6-12 4.2 0.9c2.4 0.5 3.2 1.6 2.8 3.8-0.2 1.3-0.8 2.7-2.4 2.5 1.3 0.5 1.4 1.1 1.2 2.2-0.1 0.5-0.8 3.4-0.3 3.9v0.4l-2.5-0.7c-0.1-0.8 0.3-2.3 0.4-3.1 0.1-0.7 0.4-1.7-0.4-2.1-0.6-0.3-0.8-0.3-1.4-0.4zm-13.5-5.3c0.9-3 1.7-5.1 5.2-4.1 1.9 0.5 3 1.3 3 3.5 0 0.5-0.2 1-0.3 1.5l-2.2-0.6c0.3-1.2 0.5-2.2-1-2.6-1.7-0.5-2.1 1.6-2.4 2.5l-0.9 3.3c-0.3 1-0.6 2.6 0.9 3 1.2 0.3 2-0.9 2.4-2.7l-1.5-0.4 0.5-1.9 3.6 1.2-1.7 6.3-1.7-0.4 0.4-1.3c-0.8 1.1-1.7 1.2-2.5 1-3.6-1-3.2-3.3-2.4-6.4zm74.7 3.6 1.9-0.5-2.5-5zm-1.8 5.8-0.8-12.5 2.9-0.9 6.2 10.9-2.3 0.7-1.5-2.8-2.6 0.8 0.3 3.1zm-3.5-3.7c0 0.2 0.1 0.5 0.1 0.7 0.3 2.2-0.1 4-2.6 4.5-3.6 0.7-4.3-1.6-5-4.7l-0.3-1.7c-0.5-3-0.7-5.3 2.8-6.1 2-0.4 3.3 0.4 3.9 2.4 0.1 0.3 0.2 0.6 0.2 0.9l-2.2 0.5c-0.3-0.8-0.6-2.1-1.6-2-1.8 0.2-1.2 2.4-1 3.3l0.7 3.3c0.2 1 0.6 2.6 2.1 2.3 1.2-0.2 0.7-2.2 0.6-3zm-15.7-0.7c0.5-0.1 1.2-0.1 1.5-0.6 0.2-0.3 0.4-0.6 0.2-1.3-0.2-0.9-0.5-1.4-1.6-1.2l-1 0.2 0.4 3.1zm0.9 5.6c0.5-0.1 1-0.1 1.3-0.3 0.6-0.4 0.5-1.2 0.4-1.8-0.2-1.3-0.5-1.8-1.9-1.6l-0.9 0.1 0.6 3.6zm-2.6 2.2-1.7-12.1 4-0.6c1-0.1 2.1 0 2.6 0.6s0.7 1.2 0.8 2c0.1 1-0.1 2.2-1.3 2.8 1.3 0 2.1 0.9 2.3 2.5 0 0.3 0.1 1.1 0 1.8-0.3 1.6-1.2 2.1-2.8 2.3zm-3.7-24.5c0-7.6 4.2-14.4 9.7-18 4.9-3.2 11.5-5.3 22.2-8 3.3-0.8 6.7-2.7 7.8-5.1 2.8 2.8 3.4 9.3 2.9 13-0.6 4.3-5.6 11.5-13.2 11.8-4.7 0.2-10.5-1-13.3-1.6-4.8-1-12.6 2-13.8 7.9zm-4.6 0c0-5.9-0.1-21.8 0.1-23.8-0.1-23.6 17-40.3 27.8-39 7.5 0.7 13.8 3.7 17.2 12.5 3.1 8.2 0.3 19.1-10.1 21.7-11.1 2.8-17.6 5-22.3 8.3-5.7 3.9-10.1 11.5-10.3 20.3zm-3.3-99.6c-12.9 0-24 8.5-24 23.3 0 12.4 10 19 13.5 23.8 5.4 7.1 8.3 15.6 8.6 28.6 0.2 10.3 0.2 20.5 0.3 24.1h2.8c0-3.8-0.2-14.6 0-24.4 0.2-13 3.2-21.1 8.6-28.2 3.6-4.7 13.5-11.4 13.5-23.8 0.1-14.7-11.1-23.3-24-23.3h0.7zm-8.5 99.6c0-7.6-4.2-14.4-9.7-18-4.9-3.2-11.5-5.3-22.2-8-3.3-0.8-6.7-2.7-7.8-5.1-2.8 2.8-3.3 9.3-2.8 13 0.6 4.3 5.6 11.5 13.2 11.8 4.6 0.2 10.5-1 13.3-1.6 4.9-1 12.5 2 13.8 7.9zm4.6 0c0-5.9 0.1-21.8-0.1-23.8 0.1-23.6-17-40.3-27.8-39-7.5 0.7-13.8 3.7-17.2 12.5-3.1 8.2-0.3 19.1 10.1 21.7 11.1 2.8 17.6 5 22.3 8.3 5.8 3.9 10.5 11.5 10.6 20.3zm-55.9 20.5c20.1 9.2 40.1 13.9 59.6 13.9 20.7 0 41.2-4.4 59.5-12.8 9.1-18.9 13.7-38.3 13.7-57.7 0-19.5-4.8-39.8-13.9-58.7-19.8-9.2-40.4-14-59.8-14-20.8 0-40.7 4.3-59.2 12.8-8.9 18.5-13.4 38-13.4 57.8-0.1 19.8 4.6 40.1 13.5 58.7zm59.6 17.1c-20.1 0-40.8-4.9-61.5-14.5l-0.5-0.2-0.2-0.5c-9.3-19.2-14.2-40.1-14.2-60.6s4.7-40.5 14-59.6l0.3-0.5 0.5-0.3c19.1-8.9 39.6-13.3 61.1-13.3 20 0 41.3 5 61.7 14.5l0.5 0.2 0.2 0.5c9.4 19.5 14.4 40.4 14.4 60.6 0 20.1-4.8 40.1-14.2 59.6l-0.2 0.5-0.5 0.2c-18.8 8.8-40.1 13.4-61.4 13.4zm149.7-64.5-5.3 20.4h13.7c5.4 0 12.7-2.6 14.5-9.3s-3.3-11.1-8.7-11.1zm16.2-22.7c4.1 0 11.3-1 13.1-8.9 2-8.5-4.8-8.8-8-8.8h-11.4l-4.2 17.7zm20.2-49.6c19.7 0.1 30.9 10.8 30.9 26.2 0 14.2-11.8 26.8-24.7 33.3 13.3 4.9 14.4 16.8 14.4 25.2 0 20.4-20.6 39.5-47.3 39.5h-58.3l21.8-86.9-9.4-0.1 18.5-37.2s38-0.1 54.1 0zm189.7 41.3-13.7 33.1h14.9zm35.9-41.6 5.4 124.5h-38.2l-1-21.4h-28.1l-9 21.4h-44.4l44.7-87.1h-8.8l20.9-37.4z"/>
</g>
</svg>
