<?xml version="1.0" encoding="UTF-8"?>
<svg version="1.1" viewBox="0 0 494 143.4" xml:space="preserve" xmlns="http://www.w3.org/2000/svg">
<style type="text/css">
	.st0{fill-rule:evenodd;clip-rule:evenodd;fill:#056777;}
	.st1{fill-rule:evenodd;clip-rule:evenodd;fill:#FFFFFF;}
	.st2{fill-rule:evenodd;clip-rule:evenodd;fill:#E35626;}
</style>
<g transform="translate(-4,-4.7)">
	<path class="st0" d="m301.5 4.7h30.4l74.1 99.9v-84.7c0-8.6-11.7-14.9-11.7-14.9h38s-10 5.7-10 14.7v128.4s-17.6-7.1-30.9-25.2-63.2-83.2-63.2-83.2v86.3c0 6.2 10.4 13.8 10.4 13.8h-37.5s10.4-5.7 10.4-13.3v-105.3c0.1-11.5-10-16.5-10-16.5zm163.5 99.8v-84.7c0-8.6-11.8-14.9-11.8-14.9h44.8s-10 5.7-10 14.8v105.5c0 8.1 9.6 14.8 9.6 14.8h-43s10.5-6.5 10.5-13.2v-22.3zm-255.1-86.2v40.9h19.4c9 0 21.8-4.8 21.8-21.4s-19-19.5-25.6-19.5zm0 54.3v53.3h25.6c10 0 28.5-8.6 28.5-25.2s-15.2-28.1-29.4-28.1zm-33.1-67.8h65.7c14.7 0 31.4 12.6 31.4 29.7 0 23.3-17.9 26.5-17.9 26.5s31.3 7.6 31.3 37.6-34.1 41.3-45.5 41.3l-65.9-0.2s11.4-5.9 11.4-15.9v-102.8c0-10.4-10.5-16.2-10.5-16.2z"/>
	
		<path class="st1" d="m4 139.8h135v-135h-135z"/>
		<path class="st2" d="m4 4.8h42.2c-0.1 0.3-0.4 1.1-0.8 2.6-1.8 7.1-4.5 27.7 14 57.9 4.6 7.5 9 13.4 13.5 19.2l-14.6 11.7c-24.4-29.8-54.3-67.8-54.3-67.8zm0 51.5v83.6l40.9-33-28.2-35.2zm135-8.5c-0.3-0.4-1.6-2.3-3.4-4.2-5.6-5.8-17.7-15-32.4-7.1-13.5 7.3-20.4 24.1-3.6 46.3 13.8 18.3 26.3 20 33.4 19 1.2-0.2 5-1.1 5.9-1.7v-52.3zm0-24.4v-18.6h-75.1c-0.1 0.3-0.6 1.5-0.9 3.4-0.5 4.3-0.7 12.4 2.4 24 4.2 15.8 15.7 30 15.7 30s-1.1-15.9 13.4-30.4c9.2-9.2 19.6-12.1 28-11.9 3 0 5.7 0.5 8.1 1 1 0.1 7.7 2.1 8.4 2.5zm0 83.5c-0.3 0.3-1.1 0.8-2.5 1.7-3.7 2.5-11.6 6.2-24.7 4.2-11.8-1.8-23.1-9.7-33.5-21.9l-14.9 11.9c10.5 12.6 18.6 22.7 21.3 24.7 10.3 7.4 17.3 4.6 17.3 4.6l-9.5 7.7h46.5zm-70 32.9h-51.5l4.2-3.4 28.6-22.9s11.3 14.7 15.8 20.1c0.8 1 1.5 2 2 2.8 0.8 1.6 0.7 2.7 0.9 3.4z"/>
	
</g>
</svg>
