<?xml version="1.0" encoding="UTF-8"?>
<svg version="1.1" viewBox="0 0 494.93 116.43" xml:space="preserve" xmlns="http://www.w3.org/2000/svg">
<style type="text/css">
	.st0{fill-rule:evenodd;clip-rule:evenodd;fill:#2356A7;}
</style>
<g transform="translate(-2.9667 -3.1667)">
	<path class="st0" d="m24.3 61.6c0.9 1.5 7.7 8.6 9 9.9l9.4 9.5c3.3 4.2 5.5 6 5.4 13.5-0.1 5.3-4.4 9.8-7.3 11.6s-3.7 1.8-7.7 1.8h-9.5c-3 0-5.1-1.5-6.5-3-2.2-2.4-2.3-3.1-2.3-7.2 0-2-0.2-73.3 0-75.5 0.3-2.5 2.3-4.6 3.9-5.6 2.4-1.5 4.1-1.9 7.5-1.9 6.8 0 11.3-0.8 16.3 2.6 4.2 2.9 6.5 7 6.5 12.4 0 6-3.3 9.7-5.9 13-3.9 4.8-17.7 15.8-18.8 18.9zm33.7-46.9c2.2-0.1 10.1-0.3 11.9 0.1 5.8 1.2 12.1 5.9 12.2 12.3 0 5-0.6 6.2-3 9.3-3.1 4-11 11.8-15.2 15.3-1.7 1.5-9.1 8.4-9 9.6l28.2 28.9c3.2 3.3 16.2 15.8 16.9 17.5h-41.1c0.4-0.9 1.3-2 1.8-2.9 2.2-3.3 3.3-6.4 3.3-10.6 0.1-9-3.7-13.2-9.1-18.7l-13.5-14.1c2.4-2.9 0.9-1.4 4.2-4.8 3-3 7.2-6.3 9.5-8.8 1.4-1.5 3-3.2 4.2-5.1 2.7-4.2 4.3-8.3 3.8-14.6-0.8-9.4-4.5-10.7-5.1-13.4zm31 0c12-0.2 19.6-1.1 19.4 15.7l-0.3 16.2c-0.2 16.9 0.1 34.3 0 51.4l-36.2-36.8c0.4-1.1 3.5-4.2 4.3-5l5-4.5c1-0.9 1.5-1.3 2.4-2.2 2.7-2.8 3.6-2.9 7-7.3 3.7-4.8 4.3-7.1 4.4-14.6 0-8-4.9-10.1-6-12.9zm-66.4-11.4c-7.6 0.4-14.5 5-17.3 11.7-1.9 4.5-2.2 6.7-2.2 12.3v43.7c0 9.6-0.3 19.6 0 29.1 0.3 8.5 6.2 14.5 11.8 17.4 4.1 2.1 7.2 2.1 12.4 2.1h72.9c8.4 0 14.5-6.3 17.2-11.7 2.1-4.2 2.2-7.1 2.2-12.4v-72.8c0-4.4-1.8-8.1-3.8-10.8-2-2.6-4.5-4.8-8.1-6.6-4.2-2.1-7.2-2-12.3-2h-58.3c-4.7 0-9.9-0.3-14.5 0z"/>
	<path class="st0" d="m247.5 90.6h14.3l-0.1-38.9c0.7 0.6 9.6 18.6 10 19.4l9.9 19.5h19.1l0.1-58.1c-1.6-0.1-13-0.2-14 0.1l-0.3 38.2c-0.5-0.5-10.5-20.9-11.8-23.8l-7.2-14.4h-19.9z"/>
	<path class="st0" d="m394.1 79.5v-13.8c2.5-0.4 8.5 0.1 10.8 0.7 3.1 0.9 5.6 2.4 5.4 6.2-0.2 3.7-2.3 5.4-5.3 6.3-2.4 0.6-8.5 1-10.9 0.6zm0-24.1v-12c2.7-0.2 7.6-0.2 9.8 0.4 2.8 0.7 4.9 2.3 4.9 5.6-0.2 6.2-10.5 6.5-14.7 6zm-15.6 35.2c2.1 0.2 18.3 0 21.9 0 11.9 0 27.1-2.8 25.2-18.3-0.5-4.5-2.8-8-6.4-10-1.7-1-2.7-0.7-4.3-1.2-0.1-1.2 0.5-0.4 3.2-2 8.9-5.4 7.9-18.9-0.5-23.9-5.5-3.3-11.1-2.7-18.2-2.7-2.8 0-19.6-0.2-20.8 0.1z"/>
	<path class="st0" d="m152.3 66.1c1.7-0.3 8.9-0.1 10.6 0.3 3.1 0.7 5.2 2.3 5.2 5.9 0 3.4-0.5 4.8-4.1 6.1-3.1 1.1-8.2 1.4-11.7 1.1v-11.9zm0.1-22.6c1.9-0.3 7.8 0 9.7 0.4 3.2 0.7 4.6 1.9 4.6 5.5 0 3.4-2.2 4.5-5 5.3-1.9 0.5-7.4 1-9.3 0.6zm-15.6 47.1c13-0.5 40.3 3.1 45.8-9.3 1.2-2.8 1.4-6.5 1.1-10-0.4-5.2-5.2-9.6-10.3-10.2-1-0.1-0.7 0.1-1-0.5 0.3-0.5-0.1-0.2 0.9-0.4 0.4-0.1 0.5-0.1 1-0.3 0.7-0.2 1.2-0.5 1.8-0.9 2.8-1.7 6.1-5.4 6.2-9.3 0.1-6.2 0.1-10.8-6.3-14.5-5.7-3.3-10.8-2.9-18.1-2.9-6.9 0-14.1 0.2-21 0z"/>
	<path class="st0" d="m444.7 43.4c6.2-0.1 17.2-0.6 14.9 8.5-1.3 5-9.4 4.7-14.9 4.6v-11.8zm-15.6 47.2h15.5v-22.9c3-0.5 6.7 0.1 8.5 1.5 3.5 2.8 4.8 9.1 6.5 13.7 0.4 1.2 0.9 2.5 1.2 3.8 0.3 1 0.8 3.2 1.2 4h15.7c0.2-2-6.6-19.5-8.1-23.3-1.8-4.6-3.7-3.8-4.9-5.8 4.8-0.6 9.9-5.8 10.4-10.8 0.7-7.9-1-12.4-6.1-15.3-5.6-3.1-11.4-3-18.5-3s-14.4-0.2-21.5 0z"/>
	<path class="st0" d="m306 90.5 15.5 0.1v-26.3c2 1 15.6 23.5 18.2 25.8 0.8 0.7 2.2 0.4 3.6 0.4 2.6 0 14.4 0.1 16 0-0.1-1.7-9.1-13-10.4-14.8-3.7-4.9-7.5-9.4-11.1-14.4-1.5-2-1.3-1.8 0.2-3.9l14.2-17.8c1-1.3 5-6.2 5.6-7.2l-18.3 0.1c-0.8 0.1-4.4 5.3-5 6.2-2.1 2.8-4.2 5.7-6.4 8.5-0.8 1.1-5.9 8.1-6.4 8.3v-23.1h-15.5z"/>
	<path class="st0" d="m213.7 44.6c0.6 0.4 4.5 14.9 5.1 16.7 0.4 1.5 1.5 4.4 1.6 5.8h-14.3l3.7-11.3c0.7-1.9 1.2-3.7 1.8-5.6 0.3-1 0.6-2 0.9-2.8 0.3-1 0.5-2.4 1.2-2.8zm-31.5 46c3.8 0.2 9.6 0 13.6 0 1.9 0 1.8-0.5 2.6-2 1.8-3.4 2.7-6.7 3.8-10.4 2.2-0.3 16.3-0.1 19.6-0.1 1.5 0 1.9-0.2 2.6 1 0.8 1.5 2 6.3 2.7 8.2 1.3 3.7 1.8 3.2 4 3.2h14.3l-22.1-58.1h-18.8c-2.7 4.5-3.9 9.5-5.9 14.3-3.6 8.9-7.4 20.1-11.1 29.3-1 2.7-5.2 12.1-5.3 14.6z"/>
	<polygon class="st0" points="497.9 90.6 497.9 32.4 482.4 32.4 482.4 90.6"/>
</g>
</svg>
