<?xml version="1.0" encoding="UTF-8"?>
<svg version="1.1" viewBox="0 0 493.59 143.87" xml:space="preserve" xmlns="http://www.w3.org/2000/svg">
<style type="text/css">
	.st0{fill-rule:evenodd;clip-rule:evenodd;fill:#278ACA;}
	.st1{fill-rule:evenodd;clip-rule:evenodd;fill:#FFFFFF;}
</style>
<g transform="translate(-3.0267 -6.9431)">
	<path class="st0" d="m144.2 84.1c2-21.9-7.5-41.6-17.8-53.2-10.1-11.3-25.3-21.9-47.5-23.7-10.9-1-21.7 1-30.6 4.6-9.7 3.8-19.9 10.6-26.4 18.2-4.3 5-7.9 9.5-10.9 15.7-9.1 18.6-10.7 39.2-3.3 58.8 3.6 9.5 7.3 14.9 13.4 22.3 4.8 5.9 13 12.1 19.9 15.8 8.1 4.3 16.8 7.1 27.6 8 10.9 0.9 21.9-1.1 30.7-4.7 9.3-3.7 15.6-8.3 21.9-13.8 1.4-1.2 3.2-3.1 4.5-4.5 11-12.6 16.8-25.5 18.5-43.5z"/>
	<path class="st1" d="m32.9 57.8c3-0.1 9.2 9.6 30 3 4.7-1.5 9.2-3.4 13.8-5.1 10.2-3.8 19.8-7.6 30.5-3.5 2 0.8 4.7 2.2 6.1 3.4 2.2 1.9 1.7 4.2 1.7 7.7v28.4c0 1.7 0.4 7.9-0.5 8.9-0.9 0.1-4.3-2-6.3-2.9-7.7-3.1-16.2-2-23.8 0.1-14 4-29.6 13-44.6 7.5-8.6-3.2-7.4-4.6-7.4-11.1v-27.7c0-2.3-0.4-7.1 0.5-8.7z"/>
	<path class="st0" d="m450.5 84.2c-0.3-2.7-0.1-7.4 0-10.3 0-3.1 0.9-5.8 2.2-8 5.9-10 20.5-10 26.2 0.1 1.4 2.3 2.2 4.8 2.2 8.1 0 2.6 0.3 7.8-0.1 10.2zm0 15.7h30.6v15.6h15.4c0.2-8.5 0-17.4 0-25.9 0-7.6 0.7-17.6-1.3-24.5-3.5-11.9-14.5-22.3-29.5-22.3-14.9 0-26 10.6-29.3 22.4-1.9 6.9-1.3 16.7-1.3 24.5 0 8.6-0.1 17.2 0 25.8h15.4z"/>
	<path class="st0" d="m274.4 84.2c-0.3-2.7-0.1-7.4 0-10.3 0.2-8.2 6.4-15.5 15.4-15.5 8.9 0 15.2 7.3 15.3 15.6 0.1 3.1 0.2 7.1 0 10.2zm0 15.7 30.7 0.1v15.5h15.3c0.3-8.5 0-17.4 0-26 0-7.7 0.7-17.6-1.3-24.5-3.4-11.7-14.3-22.2-29.3-22.2s-25.9 10.4-29.4 22.3c-2 6.7-1.3 17-1.3 24.6v13c0 4.1-0.2 8.8 0 12.8h15.3z"/>
	<path class="st0" d="m186.5 58.4c3.4-0.1 9.4-0.2 12.7 0.2 18.4 2.2 24.6 26.6 9.1 37.6-6.1 4.3-14.1 4.1-21.9 3.6zm-15.3 57.1c8.1 0.1 16.3 0 24.5 0 8.1 0 13.6-1.8 19.3-5.1 22.4-13 24.2-48 0-62.5-5.3-3.2-11.7-5.1-19.3-5.1-8.1 0-16.3-0.1-24.5 0z"/>
	<path class="st0" d="m362.5 115.5v-36.2c0-6.8-0.2-10.4 3.3-14.9 2.3-3 6.5-6 12.1-6 5.8 0 9.7 3.1 12.1 6.1 3.4 4.4 3.1 8.3 3.1 14.9v36l15.4-0.1c0.2-8.6 0-17.3 0-25.9 0-7.6 0.7-17.7-1.3-24.5-3.5-11.9-14.4-22.3-29.5-22.3-15 0-25.9 10.6-29.3 22.4-2 6.8-1.3 16.9-1.3 24.5v25.8z"/>
</g>
</svg>
