<?xml version="1.0" encoding="UTF-8"?>
<svg version="1.1" viewBox="0 0 485 432.81" xml:space="preserve" xmlns="http://www.w3.org/2000/svg">
<style type="text/css">
	.st0{fill-rule:evenodd;clip-rule:evenodd;fill:#E8282B;}
</style>
<g transform="translate(-7.5 -5.7992)">
	<path class="st0" d="m55.6 17.5h30.7c2.3 0 4.1 2.1 3.8 4.4l-14.3 98.5c-0.5 3.8 2.4 7.2 6.2 7.2h53.8c1.5 0 2.7 1.4 2.5 2.9l-4.2 28.3c-0.2 1.5-1.5 2.6-3 2.6h-60.7c-18.1 0-35.5-14.8-32.9-32.7l14.3-107.9c0.2-1.9 1.9-3.3 3.8-3.3z"/>
	<path class="st0" d="m157.9 56.8-14 100.5c-0.2 1.6 1 3 2.6 3h29.7c2.1 0 3.9-1.6 4.2-3.6l13.9-98.8c0.3-2.3-1.5-4.3-3.8-4.3h-28.8c-1.9-0.1-3.5 1.3-3.8 3.2z"/>
	<path class="st0" d="m219.2 152.6c-9.2-0.3-13.4 2.5-18.9 5.7 1.3-9.1 11.5-79.7 12.5-84 1-4.6 1.9-12.3 6-16.2 4.8-4.6 12.2-7.2 49-7.3 37.6-0.1 44.9 26.8 42.9 44.4-1.7 15-7.3 52-8.9 62.4-0.2 1.6-1.6 2.7-3.2 2.7h-29c-2.1 0-3.8-1.9-3.5-4 1.5-10.3 5.4-37.9 6.7-45.9 1.7-9.9 3-20.8 0.3-25.1-2.6-4.3-10.6-7.6-25.9-5l-11.2 79.5s-7.3-6.9-16.8-7.2z"/>
	<path class="st0" d="m342.1 11.8h32.2c1.2 0 2.1 1.1 2 2.2l-20 144.7c-0.1 1.1-1.1 1.9-2.2 1.9h-31.8c-1.3 0-2.3-1.2-2.2-2.5l20-144.6c0.2-1 1-1.7 2-1.7z"/>
	<path class="st0" d="m367 98.9 36.4-42.5c1.1-1.3 2.8-2.1 4.6-2.1h32c2.3 0 3.5 2.7 2 4.4l-37.2 41.2 34 72.9c1.3 2.7-0.7 5.7-3.7 5.7h-28.9c-1.5 0-2.9-0.9-3.5-2.2z"/>
	<path class="st0" d="m200.5 26.3c-2.6 10.9-12.5 19.1-22.9 19.1s-18.3-8.9-15.7-19.8 11.2-19.8 23.5-19.8c10.4-0.1 17.7 9.5 15.1 20.5z"/>
	<path class="st0" d="m233.3 185.9c-2.6 10.9-12.5 19.1-22.9 19.1s-18.3-8.9-15.7-19.8c2.6-11 11.2-19.8 23.5-19.8 10.3-0.1 17.7 9.5 15.1 20.5z"/>
	<path class="st0" d="m389.1 316.7c-2.2 10.8-12.2 18.9-23.1 18.9s-19.7-8.8-17.5-19.6 10.8-19.6 23.7-19.6c10.9 0 19.1 9.5 16.9 20.3z"/>
	<path class="st0" d="m114.9 262.8h-19.5c-0.7 0-1.2-0.7-1-1.4l17-42.9c0.3-0.8 1.5-0.6 1.6 0.2l3.8 42c0.2 1.2-0.7 2.1-1.9 2.1zm47.3 53.9-21.8-129.8c-1-5.7-5.9-9.8-11.7-9.8h-21.8c-6.7 0-12.7 3.9-15.5 9.9l-58.6 129.9c-0.8 1.9 0.5 4 2.6 4l30.5-0.2c2.1 0 4-1.3 4.8-3.2l10.1-23.7c0.3-0.6 0.9-1.1 1.6-1.1h36.9c0.9 0 1.7 0.7 1.8 1.6l2.2 22.5c0.3 2.6 2.5 4.6 5.1 4.6h29.9c2.4 0 4.3-2.2 3.9-4.7z"/>
	<path class="st0" d="m147.6 340.2 7 21.7c1.3 3.6 2.2 4.4 4.7 3.8 8.9-1.9 30.4-8.2 40.9-22.4 13.7-18.5 15.6-51.1 18-67.7 2-13.7 6.4-47.3 7.8-58.7 0.3-2.1-1.3-3.9-3.4-3.9h-27.3c-2.4 0-4.5 1.8-4.8 4.2-2.2 16.1-10.1 74.2-11.5 82.3-1.6 9.4-1.9 22.9-15.8 30.9-6.9 4-10.5 4.8-13.2 6.1-1.5 0.6-3.1 1.3-2.4 3.7z"/>
	<path class="st0" d="m297.9 290.3s-14.2 4.8-21.1-0.3c-6.8-5.1-7.4-15.6-3.4-30.7 4-15 14-17.6 18.2-17.9 4.3-0.3 12.3 1.7 12.3 1.7zm39.4-73.3c-9.2-2.3-24.7-7.3-49.6-5.5-23 1.7-48.9 12.3-53.7 57.4-4.9 45.2 15.9 53.9 45.6 55.2 21.8 0.9 39-5 46.6-8.3 2.6-1.1 4.5-3.6 4.9-6.4l11-87c0.4-3.5-1.3-4.6-4.8-5.4z"/>
	<path class="st0" d="m358.5 282 8-83.3c0.3-3 2.8-4.2 5.8-4.2h27.7c2.6 0 3.7 1.9 3 5.1l-16.9 83.4c-0.3 1.6-1.8 2.8-3.4 2.8h-20.7c-2 0-3.7-1.8-3.5-3.8z"/>
	<path class="st0" d="m35.1 435.5c5.5 3 11.9 3.9 18 2.4 24.2-5.7 77.9-21.1 191.4-37.5 142.5-20.4 247.7-20.3 247.7-20.3l0.3-0.2s-93.3-12.8-246.4 2.1-238.6 38.4-238.6 38.4z"/>
</g>
</svg>
