<svg width="148" height="32" viewBox="0 0 148 32" fill="none" xmlns="http://www.w3.org/2000/svg">
<g clip-path="url(#clip0_7298_33614)">
<g clip-path="url(#clip1_7298_33614)">
<path d="M35.8914 11.9486C35.8669 11.8922 35.8522 11.8359 35.8277 11.7771C34.3335 8.2964 28.6629 7.24067 22.1253 8.83283L21.0524 8.19597C24.271 6.8757 27.4774 6.18494 30.1645 6.376C34.1718 6.66259 36.1314 8.83283 35.8938 11.9486H35.8914ZM30.0787 19.2578C25.8852 24.3331 18.309 27.8481 13.1553 27.4832C8.00893 27.1133 7.22755 22.7018 11.4235 17.6265C11.5043 17.5211 11.5974 17.4207 11.6831 17.3154L11.6954 23.6791C11.6685 25.2982 13.3072 26.0576 14.4829 25.4134L29.8975 16.4752C31.1026 15.7306 30.9752 14.0723 29.8387 13.433L23.5901 10.011C25.2778 9.52848 26.8993 9.30068 28.3396 9.40356C33.4909 9.77343 34.2649 14.1849 30.0763 19.2603L30.0787 19.2578ZM10.4731 30.2143C5.74316 29.8763 3.85706 26.91 5.0867 22.8708C5.07935 23.5444 5.18958 24.1886 5.45167 24.7887C7.30103 29.1096 15.5999 29.6975 23.9869 26.109C24.1583 26.0355 24.3298 25.9571 24.5013 25.8837C19.7909 28.774 14.5466 30.5009 10.4707 30.2143H10.4731ZM15.9232 7.61544L26.2698 13.8151C27.0365 14.2511 27.1271 15.3876 26.3139 15.8898L15.862 21.9522C15.0634 22.3907 13.944 21.869 13.9661 20.7642L13.9171 8.7275C13.9636 7.72322 15.0071 7.11575 15.9256 7.61544H15.9232ZM39.8742 9.84937C37.7064 4.78139 28.6997 3.66443 18.9532 6.94428L14.6299 4.36743C13.2827 3.63749 11.7444 4.52665 11.6709 6.01103L11.6758 10.1947C3.27409 14.9835 -1.59793 21.8739 0.47678 26.7214C2.87972 32.3233 13.6452 33.0925 24.5209 28.4336C35.4015 23.7771 42.2722 15.4562 39.8742 9.85182V9.84937Z" fill="white"/>
<path d="M48.52 17.1561L47.5794 20.4458C47.4398 20.9479 47.332 21.4035 47.2463 21.7955C47.1581 22.2094 47.1214 22.5058 47.1214 22.6871C47.1214 23.0398 47.2218 23.3092 47.4276 23.5125C47.6431 23.7134 47.9297 23.8114 48.28 23.8114C48.8311 23.8114 49.4043 23.515 49.9995 22.9247C50.5898 22.3319 51.1557 21.4844 51.7093 20.3748C52.3706 18.9565 52.9119 17.5579 53.3259 16.1592C53.7276 14.7777 53.9407 13.6901 53.9407 12.9161C53.9407 12.3552 53.8183 11.8996 53.5807 11.564C53.3406 11.2211 53.0344 11.0471 52.6768 11.0471C51.8562 11.0471 51.1116 11.5517 50.4282 12.5413C49.7423 13.5432 49.1104 15.0765 48.5225 17.1537L48.52 17.1561ZM42.6168 9.51377C44.0767 9.40599 45.4606 9.25903 46.7882 9.09736C48.111 8.93569 49.3847 8.74708 50.6143 8.51683L49.5782 12.0441C50.6119 10.6797 51.5966 9.67789 52.5396 9.06307C53.4655 8.4262 54.4306 8.12247 55.4423 8.12247C56.8189 8.12247 57.8893 8.53643 58.6315 9.35945C59.3859 10.1923 59.7558 11.3729 59.7558 12.9039C59.7558 14.1947 59.501 15.5566 58.9891 16.9798C58.4698 18.4054 57.7423 19.7281 56.8336 20.9577C55.7631 22.3858 54.6364 23.4587 53.4288 24.169C52.2163 24.8843 50.9401 25.2443 49.5782 25.2443C49.0197 25.2443 48.498 25.1708 48.0056 25.0116C47.5206 24.8475 47.0822 24.6222 46.6829 24.3209L45.6223 28.1445C45.5488 28.3748 45.4925 28.6173 45.4655 28.8598C45.4239 29.0949 45.4141 29.3325 45.4141 29.5677C45.4141 30.0282 45.5537 30.3588 45.8403 30.5475C46.1269 30.7312 46.7074 30.8463 47.5794 30.8977V31.7918H37.7031V30.8585C37.7374 30.8585 37.784 30.8536 37.8476 30.8438C37.9138 30.8291 37.9652 30.8242 37.9897 30.8242C38.6045 30.8242 39.0601 30.6748 39.3663 30.3686C39.675 30.0625 39.9909 29.2688 40.3216 27.9706L44.253 12.7446C44.3216 12.5021 44.3755 12.2547 44.4171 12.0171C44.4563 11.7893 44.4808 11.6007 44.4808 11.4758C44.4808 11.0569 44.3486 10.7753 44.0914 10.6234C43.8268 10.4519 43.3345 10.3735 42.6192 10.3735V9.51622L42.6168 9.51377Z" fill="white"/>
<path d="M60.7368 1.11451C62.2138 0.999388 63.6223 0.84752 64.994 0.661359C66.3534 0.475199 67.6467 0.262094 68.8592 0L63.4361 20.4189C63.4018 20.5291 63.3602 20.6663 63.3136 20.8426C63.2426 21.1072 63.2156 21.2762 63.2156 21.3668C63.2156 21.6069 63.2622 21.7979 63.3602 21.9302C63.4655 22.0674 63.6125 22.1359 63.8035 22.1359C63.9946 22.1359 64.2199 22.0086 64.4747 21.744C64.727 21.4893 65.2144 20.8132 65.937 19.7183L66.8041 20.3429C65.7141 22.0747 64.6657 23.3337 63.681 24.1151C62.6939 24.8941 61.67 25.2811 60.5996 25.2811C59.6565 25.2811 58.9168 25.0337 58.4073 24.5266C57.8929 24.022 57.6406 23.2921 57.6406 22.3491C57.6406 21.8861 57.9052 20.6565 58.4269 18.6626L58.4783 18.4617L62.0791 5.1733C62.1109 5.05328 62.155 4.86957 62.2138 4.62952C62.4416 3.7575 62.5445 3.19412 62.5445 2.94917C62.5445 2.61359 62.4269 2.3711 62.182 2.20943C61.9419 2.05266 61.5671 1.96938 61.0503 1.96938H60.7417V1.11696L60.7368 1.11451Z" fill="white"/>
<path d="M77.7144 11.6865C77.7144 11.199 77.6066 10.812 77.3813 10.5205C77.1584 10.2315 76.8669 10.0894 76.5019 10.0894C75.9851 10.0894 75.4903 10.327 75.0077 10.8145C74.5277 11.3068 73.9765 12.1176 73.3445 13.2517C72.6073 14.6063 72.0267 15.9241 71.6103 17.2223C71.1841 18.5328 70.971 19.6424 70.971 20.5634C70.971 21.1243 71.0886 21.553 71.3213 21.8812C71.5564 22.1898 71.8773 22.3466 72.2717 22.3466C72.8522 22.3466 73.4474 22.0184 74.0622 21.3448C74.6771 20.6761 75.2576 19.733 75.8063 18.5181C76.3844 17.1635 76.84 15.8457 77.1878 14.5867C77.5332 13.3203 77.7095 12.3552 77.7095 11.6889L77.7144 11.6865ZM84.257 8.69076L81.3641 18.79V18.8267C80.9232 20.3821 80.7028 21.286 80.7028 21.5456C80.7028 21.7857 80.7444 21.9767 80.8473 22.1286C80.9428 22.278 81.0653 22.3442 81.2343 22.3442C81.7022 22.3442 82.3145 21.8077 83.0469 20.7324C83.2698 20.4262 83.4389 20.1813 83.5564 20.0123L84.3966 20.6418C83.4511 22.2192 82.513 23.3852 81.5503 24.1274C80.5901 24.872 79.554 25.2394 78.4468 25.2394C77.5258 25.2394 76.8228 25.0459 76.3476 24.6614C75.8602 24.2621 75.6201 23.6963 75.6201 22.9394C75.6201 22.714 75.6397 22.425 75.6887 22.0845C75.7303 21.7391 75.8063 21.2909 75.9067 20.7471C75.0322 22.2658 74.0794 23.3974 73.0506 24.1274C72.0267 24.872 70.8804 25.2394 69.6189 25.2394C68.3574 25.2394 67.2894 24.8549 66.5325 24.0808C65.7757 23.297 65.3984 22.2364 65.3984 20.8843C65.3984 19.3289 65.7561 17.6926 66.4909 15.9584C67.2135 14.2486 68.1859 12.7202 69.4131 11.4048C70.3807 10.3491 71.3825 9.53828 72.4235 8.96755C73.4719 8.39927 74.4738 8.11758 75.4389 8.11758C76.4039 8.11758 77.0751 8.33069 77.6091 8.75445C78.1406 9.18556 78.4885 9.83957 78.6575 10.7091L79.189 8.68831H84.2496L84.257 8.69076Z" fill="white"/>
<path d="M82.5736 10.0894V9.15615C83.982 9.00673 85.4101 8.82057 86.8651 8.61236C88.3078 8.40171 89.0941 8.30128 89.2019 8.30128C89.7824 8.30128 90.5442 10.7312 91.4652 15.5983C91.84 17.5358 92.1461 19.0961 92.3862 20.267C93.4836 18.1506 94.2331 16.605 94.6397 15.6399C95.0439 14.6797 95.2423 13.9645 95.2423 13.5089C95.2423 13.1537 94.9043 12.725 94.2306 12.2351C93.5595 11.7403 93.2141 11.1696 93.2141 10.5426C93.2141 9.81506 93.4468 9.22718 93.922 8.78138C94.3874 8.34292 95.012 8.12247 95.7885 8.12247C96.565 8.12247 97.1651 8.34292 97.5987 8.78138C98.0273 9.22718 98.2502 9.84935 98.2502 10.6405C98.2502 11.6375 97.7456 13.2419 96.7487 15.4489C95.7493 17.6534 94.385 20.1347 92.6556 22.91C90.6985 26.0723 88.9104 28.3699 87.3109 29.8249C85.7089 31.2774 84.1633 32 82.6789 32C81.6918 32 80.9202 31.7918 80.3568 31.3729C79.7959 30.9541 79.5117 30.3784 79.5117 29.646C79.5117 28.9798 79.7518 28.4409 80.2441 28.0024C80.7316 27.5689 81.3464 27.3533 82.0959 27.3533C82.6838 27.3533 83.3133 27.5762 83.9869 28.0171C84.6581 28.4629 85.1137 28.6761 85.3366 28.6761C85.7408 28.6761 86.1964 28.3552 86.7107 27.711C87.2398 27.0594 87.5044 26.4495 87.5044 25.8567C87.5044 25.4256 87.4627 24.8745 87.3819 24.2131C87.3035 23.5444 87.1761 22.7312 87.012 21.7636C86.6716 19.6889 86.3237 17.7955 85.9808 16.0955C85.6281 14.398 85.3145 13.0582 85.0328 12.0784C84.7854 11.2382 84.5356 10.6895 84.2809 10.4323C84.0286 10.1776 83.6195 10.0502 83.0365 10.0502H82.99C82.821 10.0723 82.6911 10.0894 82.576 10.0894H82.5736Z" fill="white"/>
<path d="M105.137 20.6761C104.047 22.1384 102.976 23.2578 101.933 24.0318C100.899 24.8157 99.956 25.2027 99.0987 25.2027C98.4055 25.2027 97.8666 24.9847 97.4698 24.5658C97.0705 24.1347 96.8672 23.5591 96.8672 22.839C96.8672 22.5842 96.8966 22.3025 96.948 21.9865C96.9946 21.6681 97.0729 21.3129 97.1783 20.9406L100.289 9.37171H97.0142L97.3179 8.37722C98.7263 8.08573 99.9707 7.44642 101.058 6.45683C102.138 5.46479 103.121 4.09553 103.985 2.34171H105.102L103.64 8.14942H106.633L106.332 9.37171H103.248L100.26 20.5438C100.191 20.7985 100.14 21.0214 100.103 21.2296C100.078 21.4354 100.054 21.6216 100.054 21.7808C100.054 22.1531 100.14 22.4323 100.316 22.6332C100.478 22.8316 100.725 22.9271 101.024 22.9271C101.416 22.9271 101.874 22.7116 102.42 22.2584C102.961 21.8126 103.65 21.0827 104.475 20.0784L105.144 20.6785L105.137 20.6761Z" fill="white"/>
<path d="M108.194 16.8671C110.602 16.7569 112.63 16.1298 114.259 14.9982C115.9 13.8494 116.708 12.5609 116.708 11.0986C116.708 10.6087 116.578 10.2413 116.319 9.99388C116.066 9.75628 115.672 9.63381 115.145 9.63381C113.685 9.63381 112.331 10.2633 111.091 11.5444C109.85 12.8353 108.889 14.6063 108.196 16.8671H108.194ZM107.91 18.0919C107.797 18.5083 107.726 18.9075 107.674 19.2897C107.616 19.662 107.599 20.0074 107.599 20.3233C107.599 21.2909 107.846 22.0306 108.353 22.5401C108.853 23.0496 109.587 23.4268 110.548 23.4268C111.508 23.4268 112.581 23.0006 113.779 22.3833C114.991 21.7685 116.35 20.8402 117.85 19.5983L118.643 20.7397C116.853 22.2731 115.167 23.4097 113.583 24.1347C112.005 24.8745 110.457 25.2345 108.938 25.2345C107.42 25.2345 106.283 24.8059 105.465 23.9633C104.64 23.1084 104.23 21.9155 104.23 20.3552C104.23 18.7949 104.551 17.3497 105.193 15.8163C105.835 14.2854 106.714 12.9137 107.821 11.7257C108.897 10.5867 110.08 9.72199 111.354 9.11697C112.647 8.5193 113.965 8.21066 115.322 8.21066C116.571 8.21066 117.551 8.4899 118.273 9.04104C118.996 9.58972 119.361 10.3442 119.361 11.3068C119.361 13.041 118.298 14.545 116.194 15.8114C114.085 17.0729 111.322 17.8273 107.907 18.087L107.91 18.0919Z" fill="white"/>
<path d="M131.436 18.3295L131.389 20.5193C130.258 22.0968 129.028 23.275 127.688 24.0588C126.351 24.8377 124.891 25.2247 123.308 25.2247C121.577 25.2247 120.161 24.6736 119.073 23.5591C117.991 22.4617 117.449 20.9969 117.449 19.1819C117.449 17.8469 117.755 16.485 118.37 15.0986C118.975 13.7024 119.828 12.4654 120.913 11.3656C121.907 10.3711 123.022 9.59461 124.256 9.06063C125.481 8.51929 126.733 8.24005 128.024 8.24005C129.376 8.24005 130.451 8.53889 131.252 9.12676C132.051 9.71464 132.455 10.496 132.455 11.4807C132.455 12.0637 132.249 12.5707 131.83 12.9871C131.416 13.406 130.926 13.6142 130.353 13.6142C129.885 13.6142 129.508 13.4721 129.217 13.1782C128.927 12.8867 128.783 12.5095 128.783 12.0367C128.783 11.7085 128.896 11.3313 129.133 10.8928C129.363 10.4617 129.474 10.1923 129.474 10.0845C129.474 9.8812 129.361 9.71954 129.121 9.59216C128.881 9.46479 128.565 9.40355 128.156 9.40355C127.323 9.40355 126.48 9.64605 125.611 10.1457C124.749 10.6528 123.994 11.3362 123.345 12.2033C122.556 13.2541 121.946 14.376 121.518 15.5566C121.096 16.7373 120.888 17.8837 120.888 19.0178C120.888 20.2988 121.226 21.3252 121.91 22.0723C122.603 22.8218 123.531 23.3288 124.705 23.3288C125.63 23.3288 126.542 22.9149 127.436 22.3662C128.335 21.8077 129.826 20.6932 131.436 18.327V18.3295Z" fill="white"/>
<path d="M129.395 25.2443L135.521 4.13227C135.557 4.0049 135.579 3.87263 135.597 3.73301C135.619 3.60318 135.626 3.46846 135.626 3.36069C135.626 2.98347 135.526 2.72627 135.335 2.5793C135.141 2.45193 134.585 2.38089 133.676 2.38089H132.282L132.498 1.41825C133.622 1.37416 134.673 1.24923 135.653 1.06552C136.623 0.872014 137.549 0.622168 138.409 0.296387H139.516L135.276 14.8781C137.446 12.7716 139.447 11.1427 141.267 9.96938C143.082 8.81568 144.532 8.23025 145.615 8.23025C146.186 8.23025 146.6 8.36007 146.872 8.61727C147.139 8.88426 147.283 9.28843 147.283 9.82976C147.283 9.99878 147.254 10.1996 147.202 10.4421C147.153 10.6944 147.087 10.9663 147.009 11.2627L143.915 21.1953C143.861 21.3864 143.81 21.602 143.771 21.8322C143.729 22.0527 143.707 22.2854 143.707 22.5083C143.707 22.6356 143.771 22.7459 143.881 22.8487C143.991 22.9467 144.128 23.1206 144.275 23.1206C144.576 23.1206 145 22.8022 145.532 22.4127C146.066 22.0233 146.624 21.4868 147.217 20.8083L147.849 21.3227C146.783 22.5793 145.757 23.5468 144.772 24.2082C143.783 24.8745 142.869 25.21 142.039 25.21C141.495 25.21 141.066 25.0827 140.75 24.8328C140.432 24.5781 140.28 24.24 140.28 23.7967C140.28 23.6424 140.292 23.4734 140.329 23.2946C140.361 23.1182 140.422 22.9247 140.498 22.7116L143.677 12.4385C143.736 12.2131 143.773 12.0416 143.795 11.9241C143.812 11.8114 143.82 11.6987 143.82 11.6056C143.82 11.3435 143.744 11.1427 143.584 11.0031C143.432 10.8732 143.21 10.8047 142.918 10.8047C142.465 10.8047 141.799 11.0716 140.919 11.6154C140.033 12.1592 139.021 12.9333 137.857 13.9375C136.816 14.8243 136.047 15.5811 135.565 16.2082C135.082 16.8377 134.729 17.4868 134.509 18.1604L132.4 25.2443C132.16 25.21 131.308 25.1831 131.06 25.1684C130.813 25.1513 131.173 25.1513 130.918 25.1513C130.663 25.1513 130.401 25.1513 130.151 25.1684C129.911 25.1831 129.659 25.21 129.399 25.2443H129.395Z" fill="white"/>
</g>
</g>
<defs>
<clipPath id="clip0_7298_33614">
<rect width="148" height="32" fill="white"/>
</clipPath>
<clipPath id="clip1_7298_33614">
<rect width="147.846" height="32" fill="white"/>
</clipPath>
</defs>
</svg>
